<svg width="35" height="35" viewBox="0 0 35 35" fill="none" xmlns="http://www.w3.org/2000/svg">
<path d="M24.7917 21.875L27.0521 24.1354C25.6521 26.6 22.1958 28.5688 18.9583 29.05V16.0417H23.3333V13.125H18.9583V11.4042C20.65 10.7917 21.875 9.1875 21.875 7.29167C21.875 4.88542 19.9063 2.91667 17.5 2.91667C15.0938 2.91667 13.125 4.88542 13.125 7.29167C13.125 9.1875 14.35 10.7917 16.0417 11.4042V13.125H11.6667V16.0417H16.0417V29.05C12.8042 28.5688 9.34792 26.6 7.94792 24.1354L10.2083 21.875L4.375 17.5V21.875C4.375 27.5333 11.55 32.0833 17.5 32.0833C23.45 32.0833 30.625 27.5333 30.625 21.875V17.5L24.7917 21.875ZM17.5 5.83334C18.3021 5.83334 18.9583 6.48959 18.9583 7.29167C18.9583 8.09375 18.3021 8.75 17.5 8.75C16.6979 8.75 16.0417 8.09375 16.0417 7.29167C16.0417 6.48959 16.6979 5.83334 17.5 5.83334Z" fill="black"/>
</svg>
