<svg width="40" height="41" viewBox="0 0 40 41" fill="white" xmlns="http://www.w3.org/2000/svg">
<path d="M8.98359 30.9969C8.93751 31.0429 8.89144 31.1351 8.89144 31.1812C8.79928 31.3194 8.79928 31.5037 8.93751 31.5958C9.07574 31.7341 9.21397 31.7802 9.3522 31.688C9.53651 31.5958 9.72081 31.5037 9.90512 31.4576C14.2363 29.5685 18.7057 28.2323 23.3133 27.3107C23.7741 27.2647 23.9584 27.0343 23.9123 26.5735V22.3345V2.75203C23.9123 2.33735 24.0045 2.24519 24.3731 2.38342C25.8936 2.89026 27.4141 3.02849 28.9807 2.56773C29.9483 2.24519 30.9159 2.29127 31.8375 2.47557C32.0218 2.52165 32.2061 2.6138 32.2982 2.38342C32.3443 2.19912 32.2061 2.10696 32.0218 2.01481C31.1924 1.60012 30.363 1.27759 29.4415 1.18544C28.7043 1.09328 27.9671 1.23151 27.2298 1.18544C26.0319 1.09328 24.8799 0.724672 23.7741 0.125679C23.2673 -0.150779 22.9447 0.0335264 22.8987 0.632519V4.41078C22.7144 4.27255 22.6222 4.1804 22.53 4.13432C21.3781 3.25887 20.2723 2.38342 19.1665 1.50797C18.7057 1.18544 18.4292 1.32367 18.3832 1.83051C17.8763 6.02346 17.0009 10.0782 15.895 14.1329C14.2363 20.0307 12.0707 25.6981 8.98359 30.9969ZM8.5689 28.5548C10.412 25.0991 11.9325 21.5051 13.1305 17.819C15.6647 10.6772 16.5862 5.60877 16.0333 5.10193C15.7568 4.82547 12.3011 2.19912 12.3011 2.19912L9.95119 0.402137C9.53651 0.125679 9.30612 0.217832 9.21397 0.724672C9.16789 1.00113 9.16789 1.27759 9.12182 1.55405C8.47675 5.9313 7.6013 10.2625 6.44939 14.5015C4.92887 20.215 2.99366 25.7441 0.136923 30.9508C0.0447701 31.1351 -0.093459 31.3194 0.0908465 31.5498C0.321228 31.7802 0.505534 31.6419 0.735916 31.5498C3.03974 30.5361 5.38963 29.7067 7.83168 29.1077C8.20029 29.0616 8.43067 28.8773 8.5689 28.5548ZM39.394 25.2373C39.3019 25.2373 39.2097 25.2834 39.1636 25.2834C34.8785 26.1128 30.5934 27.0343 26.4005 28.3705C23.3594 29.3381 20.3184 30.49 17.2313 31.4576C12.6697 32.886 8.06206 33.8536 3.22404 33.485C2.94758 33.4389 2.94758 33.6232 2.94758 33.8075C2.90151 34.9594 3.31619 35.927 4.23772 36.6642C4.4681 36.8486 4.74456 36.9868 5.11317 36.9868L7.92383 36.9407C10.1355 36.1113 14.4206 35.0977 20.9634 36.0653C23.9584 36.4799 26.4926 36.2956 28.5661 35.8349C28.8886 33.1164 30.0866 30.8125 32.16 28.8773C32.759 28.3244 33.358 27.9097 34.1413 27.6794H34.1874C34.1874 27.6333 34.2334 27.6333 34.2334 27.6333L38.7029 26.4353C38.9793 26.3431 39.2558 26.251 39.5322 26.2049C39.8548 26.1128 40.0391 25.9285 39.993 25.6059C39.9469 25.2834 39.6705 25.2373 39.394 25.2373ZM25.4329 10.0321C25.1564 10.2164 25.2946 10.4468 25.3868 10.6772C26.5848 14.1329 27.1377 17.6347 26.723 21.2747C26.6308 21.7816 26.5387 22.2423 26.4926 22.7492C26.4926 23.0256 26.6769 23.1639 26.9995 23.1178C30.317 22.4266 33.5423 22.7953 36.7216 23.9011C36.952 23.9472 37.1363 23.9932 37.2745 23.7629C37.4588 23.5325 37.2745 23.3943 37.1363 23.2099L26.0319 10.2625C25.8936 10.0782 25.7093 9.84779 25.4329 10.0321ZM20.9634 36.4799C10.7806 35.0516 6.08078 38.2769 6.08078 38.2769C6.08078 38.2769 8.52282 36.9407 21.1938 37.8622L36.3069 32.3331C36.3069 32.3331 31.1924 37.9544 20.9634 36.4799ZM22.6222 38.922C14.4667 37.724 10.7345 40.3504 10.7345 40.3504C10.7345 40.3504 12.6697 39.2906 22.8065 39.9817L34.8785 35.6045C34.8785 35.6045 30.7777 40.0739 22.6222 38.922Z" fill="white"/>
</svg>
