<svg width="126" height="126" viewBox="0 0 126 126" fill="none" xmlns="http://www.w3.org/2000/svg">
<path fill-rule="evenodd" clip-rule="evenodd" d="M22 126C79.4376 126 126 79.4376 126 22C126 14.4519 125.196 7.09153 123.669 0H0V123.669C7.09153 125.196 14.4519 126 22 126Z" fill="white"/>
<path d="M37.0475 73.9197C36.9703 73.9969 36.8932 74.1513 36.8932 74.2284C36.7388 74.46 36.7388 74.7687 36.9703 74.923C37.2019 75.1546 37.4334 75.2318 37.6649 75.0774C37.9736 74.923 38.2824 74.7687 38.5911 74.6915C45.8458 71.5272 53.3321 69.2891 61.0499 67.7455C61.8216 67.6683 62.1303 67.2824 62.0532 66.5107V59.4103V26.6097C62.0532 25.9151 62.2075 25.7607 62.8249 25.9922C65.3718 26.8412 67.9187 27.0727 70.5427 26.3009C72.1635 25.7607 73.7842 25.8379 75.3278 26.1466C75.6365 26.2238 75.9452 26.3781 76.0996 25.9922C76.1767 25.6835 75.9452 25.5292 75.6365 25.3748C74.2473 24.6802 72.8581 24.14 71.3145 23.9856C70.0797 23.8312 68.8448 24.0628 67.61 23.9856C65.6034 23.8312 63.6739 23.2138 61.8216 22.2105C60.9727 21.7474 60.4324 22.0562 60.3552 23.0595V29.3881C60.0465 29.1565 59.8922 29.0022 59.7378 28.925C57.8084 27.4586 55.9561 25.9922 54.1038 24.5259C53.3321 23.9856 52.869 24.2171 52.7918 25.0661C51.9429 32.0893 50.4765 38.881 48.6242 45.6726C45.8458 55.5514 42.2184 65.0443 37.0475 73.9197ZM36.3529 69.8293C39.44 64.041 41.9869 58.0211 43.9935 51.8468C48.2383 39.8843 49.7819 31.3947 48.8557 30.5457C48.3927 30.0827 42.6043 25.6835 42.6043 25.6835L38.6682 22.6736C37.9736 22.2105 37.5878 22.3649 37.4334 23.2138C37.3562 23.6769 37.3562 24.14 37.279 24.603C36.1986 31.9349 34.7322 39.1897 32.8027 46.29C30.2559 55.8601 27.0144 65.1214 22.2293 73.8426C22.075 74.1513 21.8435 74.46 22.1522 74.8459C22.5381 75.2318 22.8468 75.0002 23.2327 74.8459C27.0916 73.148 31.0276 71.7588 35.1181 70.7554C35.7355 70.6783 36.1214 70.3696 36.3529 69.8293ZM87.985 64.2725C87.8306 64.2725 87.6762 64.3497 87.5991 64.3497C80.4215 65.7389 73.244 67.2824 66.2208 69.5206C61.127 71.1413 56.0333 73.0708 50.8624 74.6915C43.2217 77.084 35.504 78.7048 27.4003 78.0873C26.9372 78.0102 26.9372 78.3189 26.9372 78.6276C26.86 80.557 27.5546 82.1778 29.0982 83.4126C29.4841 83.7213 29.9471 83.9529 30.5646 83.9529L35.2724 83.8757C38.977 82.4865 46.1545 80.7886 57.1138 82.4093C62.1303 83.1039 66.3751 82.7952 69.8481 82.0234C70.3884 77.4699 72.395 73.611 75.868 70.3696C76.8713 69.4434 77.8746 68.7488 79.1867 68.3629H79.2638C79.2638 68.2857 79.341 68.2857 79.341 68.2857L86.8273 66.2791C87.2904 66.1248 87.7534 65.9704 88.2165 65.8932C88.7567 65.7389 89.0654 65.4302 88.9883 64.8899C88.9111 64.3497 88.448 64.2725 87.985 64.2725ZM64.6 38.8038C64.137 39.1125 64.3685 39.4984 64.5229 39.8843C66.5295 45.6726 67.4556 51.5381 66.761 57.6352C66.6067 58.4841 66.4523 59.2559 66.3751 60.1049C66.3751 60.568 66.6838 60.7995 67.2241 60.7223C72.7809 59.5646 78.1834 60.1821 83.5086 62.0343C83.8945 62.1115 84.2032 62.1887 84.4348 61.8028C84.7435 61.4169 84.4348 61.1854 84.2032 60.8767L65.6034 39.1897C65.3718 38.8809 65.0631 38.4951 64.6 38.8038ZM57.1138 83.1039C40.0575 80.7114 32.1853 86.1139 32.1853 86.1139C32.1853 86.1139 36.2757 83.8757 57.4997 85.4193L82.814 76.1579C82.814 76.1579 74.2473 85.5736 57.1138 83.1039ZM59.8922 87.1943C46.2317 85.1877 39.9803 89.5869 39.9803 89.5869C39.9803 89.5869 43.2217 87.8118 60.2009 88.9694L80.4215 81.6375C80.4215 81.6375 73.5527 89.1238 59.8922 87.1943Z" fill="url(#paint0_linear_1_22)"/>
<defs>
<linearGradient id="paint0_linear_1_22" x1="81.5" y1="78" x2="-27" y2="-9.00001" gradientUnits="userSpaceOnUse">
<stop stop-color="#1E3A8A"/>
<stop offset="1" stop-color="white" stop-opacity="0"/>
</linearGradient>
</defs>
</svg>
